PathFileType	4	(X/Y/Z)	RBDS027\RBDS027runT25.trc
DataRate	CameraRate	NumFrames	NumMarkers	Units	OrigDataRate	OrigDataStartFrame	OrigNumFrames
150.000000	150.000000	4	33	mm	150.000000	562	4500
Frame#	Time	L.ASIS			L.Heel.Bottom			L.Heel.Lateral			L.Heel.Top			L.Iliac.Crest			L.MT1			L.MT5			L.PSIS			L.Shank.Bottom.Lateral			L.Shank.Bottom.Medial			L.Shank.Top.Lateral			L.Shank.Top.Medial			L.Thigh.Bottom.Lateral			L.Thigh.Bottom.Medial			L.Thigh.Top.Lateral			L.Thigh.Top.Medial			R.ASIS			R.ASY			R.Heel.Bottom			R.Heel.Lateral			R.Heel.Top			R.Iliac.Crest			R.MT1			R.MT5			R.PSIS			R.Shank.Bottom.Lateral			R.Shank.Bottom.Medial			R.Shank.Top.Lateral			R.Shank.Top.Medial			R.Thigh.Bottom.Lateral			R.Thigh.Bottom.Medial			R.Thigh.Top.Lateral			R.Thigh.Top.Medial			
		X1	Y1	Z1	X2	Y2	Z2	X3	Y3	Z3	X4	Y4	Z4	X5	Y5	Z5	X6	Y6	Z6	X7	Y7	Z7	X8	Y8	Z8	X9	Y9	Z9	X10	Y10	Z10	X11	Y11	Z11	X12	Y12	Z12	X13	Y13	Z13	X14	Y14	Z14	X15	Y15	Z15	X16	Y16	Z16	X17	Y17	Z17	X18	Y18	Z18	X19	Y19	Z19	X20	Y20	Z20	X21	Y21	Z21	X22	Y22	Z22	X23	Y23	Z23	X24	Y24	Z24	X25	Y25	Z25	X26	Y26	Z26	X27	Y27	Z27	X28	Y28	Z28	X29	Y29	Z29	X30	Y30	Z30	X31	Y31	Z31	X32	Y32	Z32	X33	Y33	Z33	

563	3.746666666666667	2156.816252651368	869.2008177096853	882.1113586615428	1671.183991077064	121.1067295391475	1022.83534231355	1704.130196041028	121.9461909749929	975.0139238076202	1706.571946524705	156.9968713461748	1019.572972320497	2113.619203989565	947.0153723519104	862.0882229325351	1863.709779793267	31.57419374141426	1055.927851279479	1826.040872085916	43.46235523647772	946.3845041532616	2001.791770152686	906.7981942999021	981.0875423872944	1804.367988382352	189.7080950709447	948.8338034486679	1775.320012989088	219.9707359947621	985.1829489250021	1837.331203685498	258.3389844953909	921.7932385083993	1814.768211686648	286.817567827234	961.8142367197219	2019.940142712346	520.3216413007825	865.4756855458453	1967.222895353482	527.9330443051971	913.7937607541659	2014.970128792226	629.1150483137598	848.220199989473	1969.003730469814	637.0216983106817	898.200233622575	2172.211255643362	868.1638160693487	1145.260980144123	2190.35748295758	121.1297223784864	1093.764579901632	2002.42193201152	145.9259130274877	1072.246122347317	2033.965956071668	150.0233870942055	1117.962512851476	2030.864951714969	181.7441968413682	1073.051565686209	2119.219981295502	948.8080076060082	1176.378827157047	2201.190982168304	58.86810136234754	1046.095117692097	2163.556481774699	77.5688908101332	1155.966236535254	2010.024608147613	901.6016751725658	1077.369900241926	2119.964673026991	233.609649618349	1128.55989705564	2097.544122542564	256.2320204439394	1088.82832790197	2157.070936046333	307.6112132632277	1147.553898938816	2130.8928862796	327.8203938159421	1105.828384160286	2278.8723620837	550.0117464618688	1175.389908273035	2230.883613488136	514.3382803736606	1133.632365890213	2202.044095877528	625.9875012698546	1194.026761751592	2155.01307871801	591.508407147935	1155.609418942488	
564	3.753333333333333	2159.550712912012	873.1491973181797	882.5284117498295	1661.168294416226	130.8856142374646	1022.477224519158	1694.2166314609	129.9006502219583	974.6184100212672	1698.107452873309	165.0374976273592	1019.020578146001	2118.238222552182	952.7070188607466	862.494566481386	1848.971933049598	32.12989735271919	1055.34782790675	1811.760905935829	45.14764536418494	945.9080570594427	2004.303872155852	911.9183659167103	980.1555204668809	1793.735109657802	196.1204319088507	948.3276260378973	1765.419104793358	225.6241008614398	985.757168019192	1826.21017579836	265.2419742972151	921.9955993980944	1804.355405424744	292.9299601559377	962.8883216956905	2012.042922584214	527.3354342024178	865.3639938275257	1960.188660815751	536.7398788858723	914.394643015674	2010.742337093717	636.3663690129417	848.4727606742644	1965.671196224308	645.7108749332374	898.954778754573	2173.993185048673	875.0749090714204	1145.139113246657	2211.91094308317	117.0413362458157	1091.648769259613	2023.01976763872	132.6969304630839	1069.923426237146	2054.114448608947	138.1164404294306	1115.809467051155	2049.605668426671	169.9595899487677	1071.082798839515	2120.176448836091	955.8504865613401	1175.975079327333	2226.010060978842	55.74385393135474	1043.604548194945	2187.174952114297	71.75257191772307	1153.558047641945	2011.86674607618	907.3756024824811	1076.746194601213	2135.235368668344	226.0986540883784	1126.938105692256	2111.595842144642	247.5266203503546	1087.259133603475	2167.649340306557	302.083632376006	1146.630085928064	2140.469479232421	320.8433359500042	1104.939399134237	2279.635685540247	555.2090528043657	1174.972945866485	2230.912314857809	519.5240731760889	1134.118133236405	2203.492394130687	631.7239668542089	1194.007071596071	2155.87723916504	597.395479801546	1156.082869950213	
565	3.76	2162.395560836998	876.9988096644635	882.9989569795155	1652.101203692923	141.1801447281644	1021.959713578342	1685.181884648624	138.2928455699062	974.1004459747941	1690.585778266527	173.4354395230774	1018.335592881061	2122.974532950483	958.0436720863362	862.9140904446353	1834.671695899085	33.04946182723475	1054.700053397531	1797.908036670423	47.22260092694936	945.3872225694516	2006.889922845568	916.885881435691	979.2196598317212	1783.80530346742	202.7773879350107	947.6607756958729	1756.307062739476	231.4128099341739	986.2941436612383	1815.785588831772	272.4349719703517	922.2028423888512	1794.678013921065	299.2271096612506	964.0097474514729	2004.620061065752	534.6133917565222	865.2100780236374	1953.741782136054	545.7165964330279	914.9726013295374	2006.893455779132	643.7622173206622	848.6800613020754	1962.841396223033	654.4546940915886	899.704505360069	2175.802298906165	881.7675522461906	1145.030594618771	2233.460621186431	113.2541231606986	1089.323845634781	2044.088385794067	120.3143540555101	1067.376643648375	2074.718625803729	126.9596869843391	1113.383779020712	2068.875491782697	158.8523259514322	1068.875539258674	2121.024548542377	962.799781266843	1175.493082821906	2250.528869740808	52.95171385525386	1040.893238920788	2210.707794088814	66.45859678699617	1150.967473154796	2013.798275136813	912.9613529406084	1076.10942275641	2150.833030480122	218.7324676815434	1125.168697638769	2126.000372734826	238.9291867647082	1085.59151012103	2178.437413041253	296.3844744285855	1145.673125822784	2150.289925034795	313.6829124187536	1104.05142482092	2279.91245188011	559.7108603590719	1174.608751041887	2230.404259711227	524.1569625805159	1134.631758007236	2204.700446746258	636.9690670524639	1193.985870276644	2156.420051747299	602.921103462082	1156.552705348501	
566	3.766666666666667	2165.283075689302	880.7336379859314	883.4769886882342	1643.983074985525	151.9312895507783	1021.26812567542	1676.995462130877	147.0860440483541	973.4391120109027	1683.97654406552	182.1564244400386	1017.490179367283	2127.664341178606	962.9844695374209	863.3321241172642	1820.844878727876	34.4302417220058	1053.968454928596	1784.524020331435	49.74985740442327	944.8182936055916	2009.502400975033	921.6737419261231	978.322931169516	1774.597453827535	209.6381336014995	946.8240848476991	1747.969059518849	237.3241462501857	986.7357991746802	1806.111135261767	279.8551620053162	922.3909455662637	1785.750975618435	305.6762349256705	965.1157638207206	1997.716719939714	542.0856785674689	865.0722744921732	1947.913905936561	554.7902923526896	915.569034898067	2003.443627434926	651.2293103735901	848.8632838527553	1960.523289613285	663.1849332919303	900.4658888123444	2177.629325917561	888.1353807392268	1144.908511860995	2254.915259034318	109.8654531492447	1086.808958631882	2065.465254374042	108.8847509291362	1064.676953068946	2095.647987407346	116.6589914096688	1110.746839160461	2088.529662979922	148.5352345024305	1066.484211284796	2121.812376860134	969.5614509183474	1174.939903865638	2274.654158620283	50.56708079273244	1037.979465074648	2234.078511872948	61.77962914977502	1148.227616727542	2015.802741753401	918.3066380812513	1075.489430871105	2166.674622337156	211.6169907413557	1123.288349631343	2140.676056650394	230.5601478554679	1083.862148423516	2189.401596303296	290.6074189329935	1144.70115770251	2160.314299895458	306.4499744819642	1103.184760106343	2279.722286728217	563.5020839695302	1174.325348694726	2229.394934662141	528.2130859991363	1135.189442079822	2205.663909905162	641.6841846067713	1193.986220052855	2156.653212712146	608.0326663152059	1157.046509609308	
